<svg width="201" height="201" viewBox="0 0 201 201" fill="none" xmlns="http://www.w3.org/2000/svg">
<rect width="201" height="201" rx="33" fill="#F9FAFC"/>
<mask id="path-2-outside-1_2_83" maskUnits="userSpaceOnUse" x="10" y="19.7065" width="180" height="160" fill="black">
<rect fill="white" x="10" y="19.7065" width="180" height="160"/>
<path d="M52.1037 21.743C46.3704 23.6097 42.1037 27.0764 39.5704 31.743C37.5704 35.4764 36.1037 36.4097 31.4371 37.2097C6.63708 40.9431 3.97041 73.743 25.8371 107.343L31.1704 115.61L25.8371 127.076C19.5704 140.41 17.5704 147.076 17.5704 154.943C17.5704 166.41 24.1037 172.276 35.3037 170.81C38.9037 170.276 42.1037 170.676 44.2371 171.876C46.1037 172.943 49.4371 173.743 51.8371 173.876C57.0371 173.876 68.6371 169.743 74.7704 165.476L79.3037 162.41L92.1037 168.81C108.37 177.076 123.037 180.41 132.104 177.876C135.437 176.943 140.104 176.276 142.237 176.41C144.504 176.41 151.704 176.676 158.237 176.81C168.904 177.21 170.904 176.81 176.104 173.876C197.57 161.743 189.97 124.276 159.17 90.0097L150.904 80.6764L155.304 73.6097C162.37 62.6764 169.704 47.4764 168.37 46.543C167.704 46.143 163.704 52.4097 159.437 60.543C150.104 78.6764 149.17 79.4764 144.637 74.943L141.17 71.4764L143.837 67.6097C155.17 51.6097 159.704 30.943 153.17 24.8097C146.637 18.6764 133.97 21.6097 117.037 33.2097C109.57 38.2764 107.304 39.2097 105.704 38.0097C100.237 34.2764 86.1038 26.6764 80.2371 24.4097C72.6371 21.4764 57.1704 20.0097 52.1037 21.743ZM69.7037 24.543C73.7037 25.2097 82.3704 28.543 88.9037 31.8764C103.437 39.0764 106.637 41.343 104.77 43.2097C103.837 44.143 101.037 43.6097 96.1037 41.343C76.5037 32.6764 55.8371 29.8764 46.7704 34.6764C44.5037 35.743 42.3704 36.4097 41.8371 36.0097C40.1037 34.2764 45.3037 28.0097 50.2371 25.743C56.3704 22.943 59.7037 22.6764 69.7037 24.543ZM151.57 27.2097C155.704 31.7431 153.704 42.543 146.37 57.343L139.97 69.8764L126.77 56.543C119.57 49.2097 113.037 43.2097 112.237 43.2097C109.037 43.2097 111.437 40.2764 119.037 35.2097C134.77 24.4097 146.504 21.6097 151.57 27.2097ZM74.7704 36.6764C78.1037 37.343 85.1704 39.8764 90.6371 42.1431L100.504 46.2764L95.1704 51.6097L89.7038 56.943L84.5037 53.6097C77.1704 48.6764 64.6371 42.6764 56.5037 40.0097C52.7704 38.6764 49.8371 37.0764 50.3704 36.4097C51.3037 34.8097 67.4371 34.943 74.7704 36.6764ZM38.9037 39.8764C38.9037 40.2764 37.9704 42.0097 36.9037 43.743C30.2371 53.8764 34.5037 76.4097 47.0371 97.0764L52.5037 106.143L48.1037 115.343C45.5704 120.41 43.0371 124.41 42.2371 124.143C39.7037 123.343 27.9704 106.543 22.7704 96.143C8.37041 67.743 11.0371 46.0097 29.3037 40.543C33.5704 39.2097 38.9037 38.943 38.9037 39.8764ZM50.9037 41.2097C61.0371 43.8764 86.9037 56.6764 86.9037 59.2097C86.9037 59.6097 82.7704 64.943 77.5704 71.0764C72.5037 77.343 65.4371 86.6764 61.9704 92.143C58.3704 97.4764 54.9037 101.876 54.1037 101.876C52.5037 101.876 46.3704 91.343 42.3704 81.8764C36.1037 66.8097 34.7704 55.8764 38.2371 47.6097C41.0371 41.0764 42.9037 39.0764 45.4371 39.743C46.6371 40.0097 49.0371 40.6764 50.9037 41.2097ZM115.57 50.0097L120.904 55.4764L113.97 51.0764C107.037 46.943 105.17 44.543 108.637 44.543C109.57 44.543 112.77 46.943 115.57 50.0097ZM111.437 52.6764C117.17 56.2764 123.437 60.943 135.97 70.8097C137.837 72.2764 137.304 73.6097 132.104 81.2097C128.904 86.0097 125.837 89.8764 125.304 89.8764C124.904 89.8764 120.904 86.0097 116.637 81.343C112.37 76.6764 105.17 69.6097 100.504 65.743L92.1037 58.6764L97.1704 53.6097C99.8371 50.8097 102.637 48.543 103.304 48.543C104.104 48.543 107.704 50.4097 111.437 52.6764ZM101.304 70.143C110.77 78.543 122.904 91.4764 122.904 93.2097C122.904 95.8764 86.6371 136.543 84.2371 136.543C83.7038 136.543 80.5037 134.01 77.0371 131.076C68.7704 123.876 67.3037 125.476 75.3037 133.076L81.4371 139.076L75.5704 144.41C72.2371 147.476 69.0371 149.876 68.2371 149.876C66.3704 149.876 45.5704 129.876 45.5704 128.01C45.5704 125.343 53.4371 109.876 54.9037 109.876C55.5704 109.876 56.2371 110.276 56.2371 110.81C56.2371 112.81 70.4215 129.876 71.3549 128.943C71.8882 128.543 64.6371 117.476 61.5704 113.343L55.9704 106.01L65.1704 92.6764C75.4371 77.6097 88.2371 62.0097 90.3704 62.0097C91.1704 61.8764 96.1037 65.6097 101.304 70.143ZM143.037 79.4764C144.37 81.2097 145.437 83.0764 145.57 83.6097C145.57 85.2097 134.904 100.543 133.837 100.543C133.17 100.543 131.437 98.8097 129.837 96.6764L127.037 92.8097L133.17 84.6764C136.504 80.2764 139.437 76.543 139.837 76.543C140.237 76.543 141.57 77.8764 143.037 79.4764ZM164.904 101.21C183.304 125.343 189.837 148.143 182.77 162.676C178.504 171.743 172.637 174.543 158.637 174.543C152.237 174.41 146.637 174.01 146.104 173.476C144.637 172.01 147.97 168.943 151.97 168.143C157.304 167.076 162.504 162.41 165.837 156.143C169.304 149.476 169.704 134.543 167.037 123.21C164.77 114.01 157.57 96.6764 153.704 91.4764C152.237 89.2097 150.904 86.943 150.904 86.4097C150.904 84.543 157.704 91.743 164.904 101.21ZM155.037 99.4764C161.837 112.943 165.57 126.276 165.837 137.61C165.837 143.343 165.437 149.476 164.904 151.343C163.304 156.276 159.037 161.743 154.904 163.876L151.17 165.743L151.837 154.543C152.504 144.943 152.104 141.743 149.17 132.276C147.17 126.143 143.57 117.743 140.904 113.476C138.37 109.21 136.237 105.21 136.237 104.41C136.237 103.743 138.77 99.4764 141.837 95.0764C148.37 86.0097 148.104 85.8764 155.037 99.4764ZM128.77 99.8764C129.97 101.61 130.904 103.743 130.904 104.41C130.904 107.476 97.5704 146.01 95.0371 145.876C94.6371 145.743 92.5037 144.276 90.3704 142.543L86.3704 139.343L96.3704 128.943C101.837 123.21 110.37 113.61 115.437 107.476C120.37 101.476 124.904 96.543 125.57 96.543C126.104 96.543 127.57 98.0097 128.77 99.8764ZM141.17 120.41C144.237 126.543 147.437 134.41 148.104 138.143C149.97 146.81 149.97 158.276 147.97 162.543C146.77 165.343 145.57 165.876 140.77 165.876C132.504 165.876 119.57 161.476 107.837 154.543L97.4371 148.41L107.17 138.143C112.504 132.543 120.504 123.476 124.77 118.143C129.037 112.81 133.304 108.676 134.104 108.943C134.904 109.21 138.104 114.41 141.17 120.41ZM35.8371 121.476C41.5704 128.81 41.5704 128.676 38.7704 138.543C36.1037 148.41 35.4371 161.21 37.5704 164.543C39.1704 167.076 36.9037 168.543 31.5704 168.543C21.4371 168.41 17.8371 158.676 22.3704 143.076C24.6371 135.21 31.8371 119.21 33.1704 119.21C33.5704 119.21 34.7704 120.276 35.8371 121.476ZM55.3037 142.676C67.0371 153.61 67.1704 152.81 51.7037 161.343C42.9037 166.143 42.5037 166.276 40.7704 163.876C39.7037 162.543 38.9037 158.41 38.9037 154.943C38.9037 148.01 42.7704 132.276 44.2371 132.81C44.7704 133.076 49.8371 137.476 55.3037 142.676ZM88.7704 145.076L92.7704 148.143L88.1037 152.276C81.8371 158.01 79.5704 158.543 74.7704 155.21C72.6371 153.61 70.9037 152.143 71.1704 151.876C74.7704 148.543 83.4371 141.876 83.9704 141.876C84.5037 141.876 86.6371 143.343 88.7704 145.076ZM123.837 167.743C129.037 170.41 134.104 172.543 134.904 172.543C135.704 172.543 136.104 173.076 135.704 173.743C134.237 176.01 125.437 176.676 117.17 175.076C109.17 173.61 85.4371 163.476 83.8371 160.943C83.4371 160.276 85.8371 157.61 89.1704 154.943L95.1704 150.276L104.77 156.676C109.97 160.143 118.504 165.076 123.837 167.743ZM76.2371 160.676C76.2371 163.076 58.3704 170.41 52.5037 170.41C45.5704 170.543 43.8371 168.276 49.3037 166.01C51.3037 165.21 56.5037 162.143 60.7704 159.21L68.6371 154.143L72.3704 156.943C74.5037 158.41 76.2371 160.143 76.2371 160.676ZM142.904 169.876C142.904 171.61 138.904 171.61 136.237 169.876C134.77 168.943 135.304 168.543 138.637 168.543C140.904 168.543 142.904 169.076 142.904 169.876Z"/>
</mask>
<path d="M52.1037 21.743C46.3704 23.6097 42.1037 27.0764 39.5704 31.743C37.5704 35.4764 36.1037 36.4097 31.4371 37.2097C6.63708 40.9431 3.97041 73.743 25.8371 107.343L31.1704 115.61L25.8371 127.076C19.5704 140.41 17.5704 147.076 17.5704 154.943C17.5704 166.41 24.1037 172.276 35.3037 170.81C38.9037 170.276 42.1037 170.676 44.2371 171.876C46.1037 172.943 49.4371 173.743 51.8371 173.876C57.0371 173.876 68.6371 169.743 74.7704 165.476L79.3037 162.41L92.1037 168.81C108.37 177.076 123.037 180.41 132.104 177.876C135.437 176.943 140.104 176.276 142.237 176.41C144.504 176.41 151.704 176.676 158.237 176.81C168.904 177.21 170.904 176.81 176.104 173.876C197.57 161.743 189.97 124.276 159.17 90.0097L150.904 80.6764L155.304 73.6097C162.37 62.6764 169.704 47.4764 168.37 46.543C167.704 46.143 163.704 52.4097 159.437 60.543C150.104 78.6764 149.17 79.4764 144.637 74.943L141.17 71.4764L143.837 67.6097C155.17 51.6097 159.704 30.943 153.17 24.8097C146.637 18.6764 133.97 21.6097 117.037 33.2097C109.57 38.2764 107.304 39.2097 105.704 38.0097C100.237 34.2764 86.1038 26.6764 80.2371 24.4097C72.6371 21.4764 57.1704 20.0097 52.1037 21.743ZM69.7037 24.543C73.7037 25.2097 82.3704 28.543 88.9037 31.8764C103.437 39.0764 106.637 41.343 104.77 43.2097C103.837 44.143 101.037 43.6097 96.1037 41.343C76.5037 32.6764 55.8371 29.8764 46.7704 34.6764C44.5037 35.743 42.3704 36.4097 41.8371 36.0097C40.1037 34.2764 45.3037 28.0097 50.2371 25.743C56.3704 22.943 59.7037 22.6764 69.7037 24.543ZM151.57 27.2097C155.704 31.7431 153.704 42.543 146.37 57.343L139.97 69.8764L126.77 56.543C119.57 49.2097 113.037 43.2097 112.237 43.2097C109.037 43.2097 111.437 40.2764 119.037 35.2097C134.77 24.4097 146.504 21.6097 151.57 27.2097ZM74.7704 36.6764C78.1037 37.343 85.1704 39.8764 90.6371 42.1431L100.504 46.2764L95.1704 51.6097L89.7038 56.943L84.5037 53.6097C77.1704 48.6764 64.6371 42.6764 56.5037 40.0097C52.7704 38.6764 49.8371 37.0764 50.3704 36.4097C51.3037 34.8097 67.4371 34.943 74.7704 36.6764ZM38.9037 39.8764C38.9037 40.2764 37.9704 42.0097 36.9037 43.743C30.2371 53.8764 34.5037 76.4097 47.0371 97.0764L52.5037 106.143L48.1037 115.343C45.5704 120.41 43.0371 124.41 42.2371 124.143C39.7037 123.343 27.9704 106.543 22.7704 96.143C8.37041 67.743 11.0371 46.0097 29.3037 40.543C33.5704 39.2097 38.9037 38.943 38.9037 39.8764ZM50.9037 41.2097C61.0371 43.8764 86.9037 56.6764 86.9037 59.2097C86.9037 59.6097 82.7704 64.943 77.5704 71.0764C72.5037 77.343 65.4371 86.6764 61.9704 92.143C58.3704 97.4764 54.9037 101.876 54.1037 101.876C52.5037 101.876 46.3704 91.343 42.3704 81.8764C36.1037 66.8097 34.7704 55.8764 38.2371 47.6097C41.0371 41.0764 42.9037 39.0764 45.4371 39.743C46.6371 40.0097 49.0371 40.6764 50.9037 41.2097ZM115.57 50.0097L120.904 55.4764L113.97 51.0764C107.037 46.943 105.17 44.543 108.637 44.543C109.57 44.543 112.77 46.943 115.57 50.0097ZM111.437 52.6764C117.17 56.2764 123.437 60.943 135.97 70.8097C137.837 72.2764 137.304 73.6097 132.104 81.2097C128.904 86.0097 125.837 89.8764 125.304 89.8764C124.904 89.8764 120.904 86.0097 116.637 81.343C112.37 76.6764 105.17 69.6097 100.504 65.743L92.1037 58.6764L97.1704 53.6097C99.8371 50.8097 102.637 48.543 103.304 48.543C104.104 48.543 107.704 50.4097 111.437 52.6764ZM101.304 70.143C110.77 78.543 122.904 91.4764 122.904 93.2097C122.904 95.8764 86.6371 136.543 84.2371 136.543C83.7038 136.543 80.5037 134.01 77.0371 131.076C68.7704 123.876 67.3037 125.476 75.3037 133.076L81.4371 139.076L75.5704 144.41C72.2371 147.476 69.0371 149.876 68.2371 149.876C66.3704 149.876 45.5704 129.876 45.5704 128.01C45.5704 125.343 53.4371 109.876 54.9037 109.876C55.5704 109.876 56.2371 110.276 56.2371 110.81C56.2371 112.81 70.4215 129.876 71.3549 128.943C71.8882 128.543 64.6371 117.476 61.5704 113.343L55.9704 106.01L65.1704 92.6764C75.4371 77.6097 88.2371 62.0097 90.3704 62.0097C91.1704 61.8764 96.1037 65.6097 101.304 70.143ZM143.037 79.4764C144.37 81.2097 145.437 83.0764 145.57 83.6097C145.57 85.2097 134.904 100.543 133.837 100.543C133.17 100.543 131.437 98.8097 129.837 96.6764L127.037 92.8097L133.17 84.6764C136.504 80.2764 139.437 76.543 139.837 76.543C140.237 76.543 141.57 77.8764 143.037 79.4764ZM164.904 101.21C183.304 125.343 189.837 148.143 182.77 162.676C178.504 171.743 172.637 174.543 158.637 174.543C152.237 174.41 146.637 174.01 146.104 173.476C144.637 172.01 147.97 168.943 151.97 168.143C157.304 167.076 162.504 162.41 165.837 156.143C169.304 149.476 169.704 134.543 167.037 123.21C164.77 114.01 157.57 96.6764 153.704 91.4764C152.237 89.2097 150.904 86.943 150.904 86.4097C150.904 84.543 157.704 91.743 164.904 101.21ZM155.037 99.4764C161.837 112.943 165.57 126.276 165.837 137.61C165.837 143.343 165.437 149.476 164.904 151.343C163.304 156.276 159.037 161.743 154.904 163.876L151.17 165.743L151.837 154.543C152.504 144.943 152.104 141.743 149.17 132.276C147.17 126.143 143.57 117.743 140.904 113.476C138.37 109.21 136.237 105.21 136.237 104.41C136.237 103.743 138.77 99.4764 141.837 95.0764C148.37 86.0097 148.104 85.8764 155.037 99.4764ZM128.77 99.8764C129.97 101.61 130.904 103.743 130.904 104.41C130.904 107.476 97.5704 146.01 95.0371 145.876C94.6371 145.743 92.5037 144.276 90.3704 142.543L86.3704 139.343L96.3704 128.943C101.837 123.21 110.37 113.61 115.437 107.476C120.37 101.476 124.904 96.543 125.57 96.543C126.104 96.543 127.57 98.0097 128.77 99.8764ZM141.17 120.41C144.237 126.543 147.437 134.41 148.104 138.143C149.97 146.81 149.97 158.276 147.97 162.543C146.77 165.343 145.57 165.876 140.77 165.876C132.504 165.876 119.57 161.476 107.837 154.543L97.4371 148.41L107.17 138.143C112.504 132.543 120.504 123.476 124.77 118.143C129.037 112.81 133.304 108.676 134.104 108.943C134.904 109.21 138.104 114.41 141.17 120.41ZM35.8371 121.476C41.5704 128.81 41.5704 128.676 38.7704 138.543C36.1037 148.41 35.4371 161.21 37.5704 164.543C39.1704 167.076 36.9037 168.543 31.5704 168.543C21.4371 168.41 17.8371 158.676 22.3704 143.076C24.6371 135.21 31.8371 119.21 33.1704 119.21C33.5704 119.21 34.7704 120.276 35.8371 121.476ZM55.3037 142.676C67.0371 153.61 67.1704 152.81 51.7037 161.343C42.9037 166.143 42.5037 166.276 40.7704 163.876C39.7037 162.543 38.9037 158.41 38.9037 154.943C38.9037 148.01 42.7704 132.276 44.2371 132.81C44.7704 133.076 49.8371 137.476 55.3037 142.676ZM88.7704 145.076L92.7704 148.143L88.1037 152.276C81.8371 158.01 79.5704 158.543 74.7704 155.21C72.6371 153.61 70.9037 152.143 71.1704 151.876C74.7704 148.543 83.4371 141.876 83.9704 141.876C84.5037 141.876 86.6371 143.343 88.7704 145.076ZM123.837 167.743C129.037 170.41 134.104 172.543 134.904 172.543C135.704 172.543 136.104 173.076 135.704 173.743C134.237 176.01 125.437 176.676 117.17 175.076C109.17 173.61 85.4371 163.476 83.8371 160.943C83.4371 160.276 85.8371 157.61 89.1704 154.943L95.1704 150.276L104.77 156.676C109.97 160.143 118.504 165.076 123.837 167.743ZM76.2371 160.676C76.2371 163.076 58.3704 170.41 52.5037 170.41C45.5704 170.543 43.8371 168.276 49.3037 166.01C51.3037 165.21 56.5037 162.143 60.7704 159.21L68.6371 154.143L72.3704 156.943C74.5037 158.41 76.2371 160.143 76.2371 160.676ZM142.904 169.876C142.904 171.61 138.904 171.61 136.237 169.876C134.77 168.943 135.304 168.543 138.637 168.543C140.904 168.543 142.904 169.076 142.904 169.876Z" fill="#0B1020"/>
<path d="M52.1037 21.743C46.3704 23.6097 42.1037 27.0764 39.5704 31.743C37.5704 35.4764 36.1037 36.4097 31.4371 37.2097C6.63708 40.9431 3.97041 73.743 25.8371 107.343L31.1704 115.61L25.8371 127.076C19.5704 140.41 17.5704 147.076 17.5704 154.943C17.5704 166.41 24.1037 172.276 35.3037 170.81C38.9037 170.276 42.1037 170.676 44.2371 171.876C46.1037 172.943 49.4371 173.743 51.8371 173.876C57.0371 173.876 68.6371 169.743 74.7704 165.476L79.3037 162.41L92.1037 168.81C108.37 177.076 123.037 180.41 132.104 177.876C135.437 176.943 140.104 176.276 142.237 176.41C144.504 176.41 151.704 176.676 158.237 176.81C168.904 177.21 170.904 176.81 176.104 173.876C197.57 161.743 189.97 124.276 159.17 90.0097L150.904 80.6764L155.304 73.6097C162.37 62.6764 169.704 47.4764 168.37 46.543C167.704 46.143 163.704 52.4097 159.437 60.543C150.104 78.6764 149.17 79.4764 144.637 74.943L141.17 71.4764L143.837 67.6097C155.17 51.6097 159.704 30.943 153.17 24.8097C146.637 18.6764 133.97 21.6097 117.037 33.2097C109.57 38.2764 107.304 39.2097 105.704 38.0097C100.237 34.2764 86.1038 26.6764 80.2371 24.4097C72.6371 21.4764 57.1704 20.0097 52.1037 21.743ZM69.7037 24.543C73.7037 25.2097 82.3704 28.543 88.9037 31.8764C103.437 39.0764 106.637 41.343 104.77 43.2097C103.837 44.143 101.037 43.6097 96.1037 41.343C76.5037 32.6764 55.8371 29.8764 46.7704 34.6764C44.5037 35.743 42.3704 36.4097 41.8371 36.0097C40.1037 34.2764 45.3037 28.0097 50.2371 25.743C56.3704 22.943 59.7037 22.6764 69.7037 24.543ZM151.57 27.2097C155.704 31.7431 153.704 42.543 146.37 57.343L139.97 69.8764L126.77 56.543C119.57 49.2097 113.037 43.2097 112.237 43.2097C109.037 43.2097 111.437 40.2764 119.037 35.2097C134.77 24.4097 146.504 21.6097 151.57 27.2097ZM74.7704 36.6764C78.1037 37.343 85.1704 39.8764 90.6371 42.1431L100.504 46.2764L95.1704 51.6097L89.7038 56.943L84.5037 53.6097C77.1704 48.6764 64.6371 42.6764 56.5037 40.0097C52.7704 38.6764 49.8371 37.0764 50.3704 36.4097C51.3037 34.8097 67.4371 34.943 74.7704 36.6764ZM38.9037 39.8764C38.9037 40.2764 37.9704 42.0097 36.9037 43.743C30.2371 53.8764 34.5037 76.4097 47.0371 97.0764L52.5037 106.143L48.1037 115.343C45.5704 120.41 43.0371 124.41 42.2371 124.143C39.7037 123.343 27.9704 106.543 22.7704 96.143C8.37041 67.743 11.0371 46.0097 29.3037 40.543C33.5704 39.2097 38.9037 38.943 38.9037 39.8764ZM50.9037 41.2097C61.0371 43.8764 86.9037 56.6764 86.9037 59.2097C86.9037 59.6097 82.7704 64.943 77.5704 71.0764C72.5037 77.343 65.4371 86.6764 61.9704 92.143C58.3704 97.4764 54.9037 101.876 54.1037 101.876C52.5037 101.876 46.3704 91.343 42.3704 81.8764C36.1037 66.8097 34.7704 55.8764 38.2371 47.6097C41.0371 41.0764 42.9037 39.0764 45.4371 39.743C46.6371 40.0097 49.0371 40.6764 50.9037 41.2097ZM115.57 50.0097L120.904 55.4764L113.97 51.0764C107.037 46.943 105.17 44.543 108.637 44.543C109.57 44.543 112.77 46.943 115.57 50.0097ZM111.437 52.6764C117.17 56.2764 123.437 60.943 135.97 70.8097C137.837 72.2764 137.304 73.6097 132.104 81.2097C128.904 86.0097 125.837 89.8764 125.304 89.8764C124.904 89.8764 120.904 86.0097 116.637 81.343C112.37 76.6764 105.17 69.6097 100.504 65.743L92.1037 58.6764L97.1704 53.6097C99.8371 50.8097 102.637 48.543 103.304 48.543C104.104 48.543 107.704 50.4097 111.437 52.6764ZM101.304 70.143C110.77 78.543 122.904 91.4764 122.904 93.2097C122.904 95.8764 86.6371 136.543 84.2371 136.543C83.7038 136.543 80.5037 134.01 77.0371 131.076C68.7704 123.876 67.3037 125.476 75.3037 133.076L81.4371 139.076L75.5704 144.41C72.2371 147.476 69.0371 149.876 68.2371 149.876C66.3704 149.876 45.5704 129.876 45.5704 128.01C45.5704 125.343 53.4371 109.876 54.9037 109.876C55.5704 109.876 56.2371 110.276 56.2371 110.81C56.2371 112.81 70.4215 129.876 71.3549 128.943C71.8882 128.543 64.6371 117.476 61.5704 113.343L55.9704 106.01L65.1704 92.6764C75.4371 77.6097 88.2371 62.0097 90.3704 62.0097C91.1704 61.8764 96.1037 65.6097 101.304 70.143ZM143.037 79.4764C144.37 81.2097 145.437 83.0764 145.57 83.6097C145.57 85.2097 134.904 100.543 133.837 100.543C133.17 100.543 131.437 98.8097 129.837 96.6764L127.037 92.8097L133.17 84.6764C136.504 80.2764 139.437 76.543 139.837 76.543C140.237 76.543 141.57 77.8764 143.037 79.4764ZM164.904 101.21C183.304 125.343 189.837 148.143 182.77 162.676C178.504 171.743 172.637 174.543 158.637 174.543C152.237 174.41 146.637 174.01 146.104 173.476C144.637 172.01 147.97 168.943 151.97 168.143C157.304 167.076 162.504 162.41 165.837 156.143C169.304 149.476 169.704 134.543 167.037 123.21C164.77 114.01 157.57 96.6764 153.704 91.4764C152.237 89.2097 150.904 86.943 150.904 86.4097C150.904 84.543 157.704 91.743 164.904 101.21ZM155.037 99.4764C161.837 112.943 165.57 126.276 165.837 137.61C165.837 143.343 165.437 149.476 164.904 151.343C163.304 156.276 159.037 161.743 154.904 163.876L151.17 165.743L151.837 154.543C152.504 144.943 152.104 141.743 149.17 132.276C147.17 126.143 143.57 117.743 140.904 113.476C138.37 109.21 136.237 105.21 136.237 104.41C136.237 103.743 138.77 99.4764 141.837 95.0764C148.37 86.0097 148.104 85.8764 155.037 99.4764ZM128.77 99.8764C129.97 101.61 130.904 103.743 130.904 104.41C130.904 107.476 97.5704 146.01 95.0371 145.876C94.6371 145.743 92.5037 144.276 90.3704 142.543L86.3704 139.343L96.3704 128.943C101.837 123.21 110.37 113.61 115.437 107.476C120.37 101.476 124.904 96.543 125.57 96.543C126.104 96.543 127.57 98.0097 128.77 99.8764ZM141.17 120.41C144.237 126.543 147.437 134.41 148.104 138.143C149.97 146.81 149.97 158.276 147.97 162.543C146.77 165.343 145.57 165.876 140.77 165.876C132.504 165.876 119.57 161.476 107.837 154.543L97.4371 148.41L107.17 138.143C112.504 132.543 120.504 123.476 124.77 118.143C129.037 112.81 133.304 108.676 134.104 108.943C134.904 109.21 138.104 114.41 141.17 120.41ZM35.8371 121.476C41.5704 128.81 41.5704 128.676 38.7704 138.543C36.1037 148.41 35.4371 161.21 37.5704 164.543C39.1704 167.076 36.9037 168.543 31.5704 168.543C21.4371 168.41 17.8371 158.676 22.3704 143.076C24.6371 135.21 31.8371 119.21 33.1704 119.21C33.5704 119.21 34.7704 120.276 35.8371 121.476ZM55.3037 142.676C67.0371 153.61 67.1704 152.81 51.7037 161.343C42.9037 166.143 42.5037 166.276 40.7704 163.876C39.7037 162.543 38.9037 158.41 38.9037 154.943C38.9037 148.01 42.7704 132.276 44.2371 132.81C44.7704 133.076 49.8371 137.476 55.3037 142.676ZM88.7704 145.076L92.7704 148.143L88.1037 152.276C81.8371 158.01 79.5704 158.543 74.7704 155.21C72.6371 153.61 70.9037 152.143 71.1704 151.876C74.7704 148.543 83.4371 141.876 83.9704 141.876C84.5037 141.876 86.6371 143.343 88.7704 145.076ZM123.837 167.743C129.037 170.41 134.104 172.543 134.904 172.543C135.704 172.543 136.104 173.076 135.704 173.743C134.237 176.01 125.437 176.676 117.17 175.076C109.17 173.61 85.4371 163.476 83.8371 160.943C83.4371 160.276 85.8371 157.61 89.1704 154.943L95.1704 150.276L104.77 156.676C109.97 160.143 118.504 165.076 123.837 167.743ZM76.2371 160.676C76.2371 163.076 58.3704 170.41 52.5037 170.41C45.5704 170.543 43.8371 168.276 49.3037 166.01C51.3037 165.21 56.5037 162.143 60.7704 159.21L68.6371 154.143L72.3704 156.943C74.5037 158.41 76.2371 160.143 76.2371 160.676ZM142.904 169.876C142.904 171.61 138.904 171.61 136.237 169.876C134.77 168.943 135.304 168.543 138.637 168.543C140.904 168.543 142.904 169.076 142.904 169.876Z" stroke="black" stroke-width="2" mask="url(#path-2-outside-1_2_83)"/>
</svg>
