<?xml version="1.0" encoding="UTF-8"?>
<svg id="Camada_1" xmlns="http://www.w3.org/2000/svg" version="1.1" xmlns:xlink="http://www.w3.org/1999/xlink" viewBox="0 0 801 159">
  <!-- Generator: Adobe Illustrator 29.7.1, SVG Export Plug-In . SVG Version: 2.1.1 Build 8)  -->
  <defs>
    <style>
      .st0 {
        fill: #4bb2e6;
      }

      .st1 {
        stroke: #4bb2e6;
        stroke-linecap: round;
        stroke-width: 2.9px;
      }

      .st1, .st2 {
        stroke-miterlimit: 3.8;
      }

      .st1, .st2, .st3 {
        fill: none;
      }

      .st2 {
        stroke: #fff;
        stroke-opacity: .3;
      }

      .st2, .st3 {
        stroke-width: 3px;
      }

      .st4 {
        fill: #fffefe;
      }

      .st5 {
        fill: url(#Gradiente_sem_nome_6);
      }

      .st3 {
        stroke: #bcd4e8;
        stroke-miterlimit: 3.8;
        stroke-opacity: .4;
      }
    </style>
    <linearGradient id="Gradiente_sem_nome_6" data-name="Gradiente sem nome 6" x1="-209.5" y1="240.3" x2="-207.3" y2="242.5" gradientTransform="translate(856 -662.2) scale(3)" gradientUnits="userSpaceOnUse">
      <stop offset="0" stop-color="#eaf3ff"/>
      <stop offset=".5" stop-color="#7fb8ff"/>
      <stop offset="1" stop-color="#3a7bd5"/>
    </linearGradient>
  </defs>
  <path class="st4" d="M250.9,26.6c-10.3,4.1-11.6,21.6-2,26.8,1.3.7,8.7,1.6,16.3,2.1,7.6.5,14.7,1.5,15.7,2.1,2.1,1.9,2.1,9.8-.1,11.5-1.1.9-9.1,1.7-19.1,1.9l-17.3.4-.4,3.6-.4,3.7h17.8c15.3,0,18.5-.4,22.1-2.7,5.8-3.5,7.5-7.2,6.7-14.3-1.2-10.7-7-13.8-25.8-13.8s-14.3-1.2-13.7-8.3c.7-6.6,4.4-7.9,21.8-7.6l14.7.3.4-3.6.4-3.5h-17.1c-9.4.1-18.5.7-19.9,1.3Z"/>
  <path class="st4" d="M495.4,25.8c0,1.3,21.7,49.7,23,51.3.8.9,3.1,1.7,5.2,1.7,3.5,0,4.3-1.1,10.6-14.1,3.6-7.8,6.7-14.3,6.7-14.7s1.7-4.3,3.9-9c2.1-4.7,4.4-10.2,4.8-12.2.9-3.6.8-3.7-2.8-3.3-3.6.4-4.4,1.7-12.7,20.9-4.8,11.2-9.4,21-10.2,21.8-.9.9-4.3-5.5-10.7-20.5-9.1-21.3-9.4-21.8-13.5-22.2-2.4-.3-4.3-.1-4.3.3Z"/>
  <path class="st4" d="M558.3,28.6c0,4.1,3.5,5.8,6.2,3.1,2.7-2.7.9-6.4-2.9-6.4s-3.2.7-3.2,3.3Z"/>
  <path class="st4" d="M625.7,27.2c-1.3,3.5.5,6.4,3.7,5.9,2.3-.3,3.1-1.3,3.1-3.7s-.8-3.5-3.1-3.7c-1.7-.3-3.3.4-3.7,1.6Z"/>
  <path class="st4" d="M307,41.6c-5.9,2.8-7.2,8.6-6.8,30.8l.4,20.5h6.7l.7-21.8c.5-17.4,1.1-22.1,2.7-23,3.1-2,19.1-1.6,22.1.5,1.7,1.3,2.7,4,3.1,9.9.8,11.4-1.6,13.7-14.5,13.7s-9.4.1-9.4,3.3.3,3.3,9.2,3.3c17.1,0,21.6-4,21.6-19.4s-2.5-16.2-7.5-18.1c-4.6-1.7-24.5-1.5-28.2.3Z"/>
  <path class="st4" d="M353.5,43.4v3.3h13.5c14.3,0,18.6,1.2,18.6,5.2s-1.3,2.5-13.5,3.1c-12.9.4-13.7.5-16.7,4.1-4.4,5.2-4.1,10.8.7,15.8,3.9,3.9,4.1,3.9,19.1,3.9s15.8-.5,16.9-1.6c2.4-2.4,2.1-25.6-.3-30.4-2.9-5.5-7.4-6.8-23.6-6.8h-14.7v3.3ZM385.3,66.4l-.4,5.1-9.4.4c-5.1.3-10.6.1-12.2-.3-3.6-.9-5-4.1-3.2-7.6,1.2-2.3,2.9-2.5,13.5-2.5h12l-.4,5Z"/>
  <path class="st4" d="M410.4,41.5c-5,2.4-6.3,6.3-6.2,17.5,0,5.8.8,11.8,1.5,13.1,2.7,5,8.4,6.7,22.8,6.7h13.4v-3.3q0-3.3-12.4-3.3c-16.6,0-18.3-1.2-18.3-12.6s1.3-12.9,17.8-12.9,13,0,13-3.3v-3.3h-14.3c-8,.1-15.7.8-17.1,1.5Z"/>
  <path class="st4" d="M455.3,43.5c-4,3.3-4.1,3.7-4.1,14.9s.7,12.4,1.3,13.9c2.7,5,8.4,6.6,23.4,6.6h14.1v-6.7h-13.4c-11.8,0-13.8-.4-16.2-2.8-4.7-4.7-2.7-5.9,11.9-6.6,11.5-.5,14.1-1.1,16.5-3.5,4.1-4.3,3.9-12.3-.8-16.2-3.1-2.7-5-3.1-16.1-3.1s-12.9.3-16.6,3.5ZM484.4,50.6c.8,5.1-2.9,6.8-14.7,6.8s-13.4-1.3-10.6-7.5c1.5-3.2,1.9-3.3,13.1-2.9,11.4.4,11.8.5,12.2,3.6Z"/>
  <path class="st4" d="M558.3,59.3v19.5h6.7v-37.2c0-.5-1.5-1.1-3.3-1.3l-3.3-.4v19.4Z"/>
  <path class="st4" d="M581.4,41.4c-6.3,2.5-7.6,11.1-2.7,16.9,2.9,3.3,4.1,3.7,15.8,4.4,11.9.8,12.6.9,13,4,.3,1.7-.3,3.7-1.3,4.3-.9.7-7.9,1.2-15.3,1.2-13.7,0-15.8.8-14.3,5,.4,1.3,4.8,1.7,15.8,1.7s15.5-.3,18.9-3.2c4.8-4,5.2-11.5.8-15.9-2.5-2.4-5-3.1-15.4-3.6l-12.3-.7v-8l14.7-.7c13.7-.7,14.7-.9,14.7-3.3s-.9-2.7-14.7-2.9c-8-.1-16.1.3-17.7.9Z"/>
  <path class="st4" d="M625.9,41.6c-.4,1.1-.5,9.6-.4,19.3l.4,17.3h6.7v-18.7c0-18.5,0-18.7-3.1-19.1-1.6-.3-3.2.4-3.6,1.3Z"/>
  <path class="st4" d="M647.8,43.9c-3.6,3.7-3.9,4.6-3.9,14.9s.7,12,1.3,13.5c2.5,4.6,8.6,6.6,19.8,6.6,17.5,0,22.8-5.8,21.3-23.4-.7-6.8-1.3-8.6-4.8-11.6-4-3.5-5-3.7-17-3.7s-13,.1-16.7,3.9ZM676.6,48.9c3.1,2.9,2.9,17.5-.1,20.9-3.2,3.6-19.4,3.5-23.2-.3-3.5-3.5-3.7-16.6-.4-20.3,2.9-3.2,20.5-3.5,23.7-.3Z"/>
  <path class="st4" d="M697.5,59.4v19.4h6.6l.4-15.8.4-15.7,10.7-.4c15.4-.5,15.9,0,16.5,17.7.5,13.9.5,14.2,3.7,14.2s3.2-.1,3.2-14.2-.4-15-2.7-18.6c-3.3-5.5-5.4-6-23.7-6h-15.1v19.4Z"/>
  <path class="st0" d="M334.3,98.1v17.5h-2l-9.5-13.7h-.2v13.7h-2.1v-17.5h2l9.5,13.7h.2v-13.7h2.1ZM348.6,115.6h-2.2l6.4-17.5h2.2l6.4,17.5h-2.2l-5.2-14.7h-.1l-5.2,14.7ZM349.4,108.7h8.9v1.9h-8.9v-1.9ZM383,102.5c-.1-.9-.5-1.5-1.2-2-.7-.5-1.6-.7-2.7-.7s-1.4.1-2,.4c-.6.2-1,.6-1.3,1-.3.4-.5.9-.5,1.5s.1.9.3,1.2c.2.3.5.6.9.8.4.2.7.4,1.1.5.4.1.7.2,1.1.3l1.8.5c.5.1,1,.3,1.5.5.6.2,1.1.5,1.6.9.5.4.9.8,1.3,1.4.3.6.5,1.3.5,2.1s-.2,1.8-.7,2.6c-.5.8-1.2,1.4-2.1,1.8-.9.4-2.1.7-3.4.7s-2.3-.2-3.2-.6c-.9-.4-1.6-1-2.1-1.7-.5-.7-.8-1.6-.9-2.5h2.2c0,.7.3,1.2.7,1.6.4.4.9.7,1.5,1,.6.2,1.2.3,1.9.3s1.5-.1,2.2-.4c.6-.3,1.1-.6,1.5-1.1.4-.5.6-1,.6-1.7s-.2-1.1-.5-1.4-.8-.7-1.3-.9c-.5-.2-1.1-.4-1.7-.6l-2.1-.6c-1.4-.4-2.4-1-3.2-1.7-.8-.7-1.2-1.7-1.2-2.9s.3-1.8.8-2.6c.5-.7,1.2-1.3,2.1-1.7.9-.4,1.9-.6,3-.6s2.1.2,3,.6c.9.4,1.6.9,2.1,1.6.5.7.8,1.5.8,2.4h-2ZM398.8,115.6h-2.2l6.4-17.5h2.2l6.4,17.5h-2.2l-5.2-14.7h-.1l-5.2,14.7ZM399.6,108.7h8.9v1.9h-8.9v-1.9ZM445.2,115.6h-5.4v-17.5h5.6c1.7,0,3.1.3,4.3,1,1.2.7,2.1,1.7,2.8,3,.6,1.3,1,2.8,1,4.7s-.3,3.4-1,4.7c-.6,1.3-1.6,2.3-2.8,3-1.2.7-2.7,1-4.5,1ZM441.9,113.7h3.1c1.4,0,2.6-.3,3.6-.8.9-.6,1.7-1.3,2.1-2.4.5-1,.7-2.3.7-3.7s-.2-2.6-.7-3.6c-.5-1-1.1-1.8-2.1-2.4-.9-.6-2.1-.8-3.4-.8h-3.4v13.7ZM466.3,115.6h-2.2l6.4-17.5h2.2l6.4,17.5h-2.2l-5.2-14.7h-.1l-5.2,14.7ZM467.1,108.7h8.9v1.9h-8.9v-1.9ZM488.2,100v-1.9h13.1v1.9h-5.5v15.6h-2.1v-15.6h-5.5ZM512.6,115.6h-2.2l6.4-17.5h2.2l6.4,17.5h-2.2l-5.2-14.7h-.1l-5.2,14.7ZM513.4,108.7h8.9v1.9h-8.9v-1.9ZM553.5,115.6v-17.5h10.5v1.9h-8.4v5.9h7.9v1.9h-7.9v5.9h8.6v1.9h-10.7ZM578.3,98.1l4.5,7.3h.1l4.5-7.3h2.5l-5.5,8.7,5.5,8.7h-2.5l-4.5-7.1h-.1l-4.5,7.1h-2.5l5.6-8.7-5.6-8.7h2.5ZM602,115.6v-17.5h5.9c1.4,0,2.5.2,3.4.7.9.5,1.5,1.2,1.9,2,.4.8.6,1.8.6,2.8s-.2,2-.6,2.8c-.4.8-1.1,1.5-1.9,2-.9.5-2,.7-3.3.7h-4.2v-1.9h4.2c.9,0,1.7-.2,2.3-.5.6-.3,1-.8,1.2-1.3.3-.6.4-1.2.4-1.9s-.1-1.3-.4-1.9c-.3-.6-.7-1-1.2-1.3-.6-.3-1.3-.5-2.3-.5h-3.7v15.6h-2.1ZM626.6,115.6v-17.5h2.1v15.6h8.1v1.9h-10.2ZM663.5,106.8c0,1.8-.3,3.4-1,4.8-.7,1.3-1.6,2.4-2.7,3.1-1.2.7-2.5,1.1-4,1.1s-2.8-.4-4-1.1c-1.2-.7-2.1-1.8-2.7-3.1-.7-1.3-1-2.9-1-4.8s.3-3.4,1-4.8c.7-1.3,1.6-2.4,2.7-3.1,1.2-.7,2.5-1.1,4-1.1s2.8.4,4,1.1c1.2.7,2.1,1.8,2.7,3.1.7,1.3,1,2.9,1,4.8ZM661.5,106.8c0-1.5-.3-2.8-.8-3.8-.5-1-1.2-1.8-2-2.4-.9-.5-1.8-.8-2.9-.8s-2,.3-2.9.8c-.9.5-1.5,1.3-2,2.4-.5,1-.8,2.3-.8,3.8s.2,2.8.8,3.8c.5,1,1.2,1.8,2,2.4.9.5,1.8.8,2.9.8s2-.3,2.9-.8c.9-.5,1.5-1.3,2-2.4.5-1,.8-2.3.8-3.8ZM676.4,115.6v-17.5h5.9c1.4,0,2.5.2,3.4.7.9.5,1.5,1.1,1.9,1.9.4.8.6,1.7.6,2.8s-.2,1.9-.6,2.7c-.4.8-1.1,1.4-1.9,1.9-.9.4-2,.7-3.3.7h-4.8v-1.9h4.7c.9,0,1.7-.1,2.2-.4.6-.3,1-.7,1.2-1.2.3-.5.4-1.1.4-1.8s-.1-1.3-.4-1.8c-.3-.5-.7-.9-1.3-1.2-.6-.3-1.3-.4-2.3-.4h-3.7v15.6h-2.1ZM684.6,107.7l4.3,7.8h-2.5l-4.2-7.8h2.4ZM701.1,115.6v-17.5h10.5v1.9h-8.4v5.9h7.9v1.9h-7.9v5.9h8.6v1.9h-10.7ZM724.8,115.6v-17.5h5.9c1.4,0,2.5.2,3.4.7.9.5,1.5,1.1,1.9,1.9.4.8.6,1.7.6,2.8s-.2,1.9-.6,2.7c-.4.8-1.1,1.4-1.9,1.9-.9.4-2,.7-3.3.7h-4.8v-1.9h4.7c.9,0,1.7-.1,2.2-.4.6-.3,1-.7,1.2-1.2.3-.5.4-1.1.4-1.8s-.1-1.3-.4-1.8c-.3-.5-.7-.9-1.3-1.2-.6-.3-1.3-.4-2.3-.4h-3.7v15.6h-2.1ZM733.1,107.7l4.3,7.8h-2.5l-4.2-7.8h2.4Z"/>
  <ellipse class="st3" cx="166.9" cy="70.8" rx="63.5" ry="22.3" transform="translate(-14.4 67.7) rotate(-22)"/>
  <circle class="st2" cx="164.5" cy="66.5" r="38"/>
  <path class="st1" d="M164.5,28.5c-21.1,0-38,17.1-38,38s17.1,38,38,38"/>
  <circle class="st5" cx="221.7" cy="52.8" r="3.4"/>
</svg>