<?xml version="1.0" encoding="UTF-8"?>
<svg id="Camada_1" data-name="Camada 1" xmlns="http://www.w3.org/2000/svg" xmlns:xlink="http://www.w3.org/1999/xlink" viewBox="0 0 801 159">
  <defs>
    <style>
      .cls-1 {
        fill: #4bb2e6;
      }

      .cls-2 {
        stroke: rgba(255, 255, 255, .3);
      }

      .cls-2, .cls-3 {
        stroke-miterlimit: 3.8;
      }

      .cls-2, .cls-3, .cls-4 {
        fill: none;
      }

      .cls-2, .cls-4 {
        stroke-width: 3px;
      }

      .cls-3 {
        stroke: #4bb2e6;
        stroke-linecap: round;
        stroke-width: 2.92px;
      }

      .cls-5 {
        fill: #fffefe;
      }

      .cls-6 {
        fill: url(#Gradiente_sem_nome_6);
      }

      .cls-4 {
        stroke: rgba(188, 212, 232, .4);
        stroke-miterlimit: 3.8;
      }
    </style>
    <linearGradient id="Gradiente_sem_nome_6" data-name="Gradiente sem nome 6" x1="-209.52" y1="240.25" x2="-207.27" y2="242.5" gradientTransform="translate(856 -662.2) scale(3)" gradientUnits="userSpaceOnUse">
      <stop offset="0" stop-color="#eaf3ff"/>
      <stop offset=".5" stop-color="#7fb8ff"/>
      <stop offset="1" stop-color="#3a7bd5"/>
    </linearGradient>
  </defs>
  <path class="cls-5" d="M250.93,26.64c-10.31,4.15-11.65,21.55-2.01,26.77,1.34.67,8.7,1.61,16.33,2.14,7.63.54,14.72,1.47,15.66,2.14,2.14,1.87,2.14,9.77-.13,11.51-1.07.94-9.1,1.74-19.14,1.87l-17.27.4-.4,3.61-.4,3.75h17.8c15.26,0,18.47-.4,22.09-2.68,5.76-3.48,7.5-7.23,6.69-14.32-1.2-10.71-6.96-13.79-25.84-13.79-12.32,0-14.32-1.2-13.65-8.3.67-6.56,4.42-7.9,21.82-7.63l14.73.27.4-3.61.4-3.48-17.13.13c-9.37,0-18.47.54-19.95,1.2Z"/>
  <path class="cls-5" d="M495.36,25.83c0,1.34,21.68,49.66,23.02,51.27.8.94,3.08,1.74,5.22,1.74,3.48,0,4.28-1.07,10.58-14.06,3.61-7.76,6.69-14.32,6.69-14.73,0-.27,1.74-4.28,3.88-8.97,2.14-4.69,4.42-10.17,4.82-12.18.94-3.61.8-3.75-2.81-3.35-3.61.4-4.42,1.74-12.72,20.88-4.82,11.24-9.37,21.02-10.17,21.82-.94.94-4.28-5.49-10.71-20.48-9.1-21.28-9.37-21.82-13.52-22.22-2.41-.27-4.28-.13-4.28.27Z"/>
  <path class="cls-5" d="M558.28,28.64c0,4.15,3.48,5.76,6.16,3.08,2.68-2.68.94-6.43-2.94-6.43-2.54,0-3.21.67-3.21,3.35Z"/>
  <path class="cls-5" d="M625.75,27.17c-1.34,3.48.54,6.43,3.75,5.89,2.28-.27,3.08-1.34,3.08-3.75s-.8-3.48-3.08-3.75c-1.74-.27-3.35.4-3.75,1.61Z"/>
  <path class="cls-5" d="M307.02,41.63c-5.89,2.81-7.23,8.57-6.83,30.79l.4,20.48h6.69l.67-21.82c.54-17.4,1.07-22.09,2.68-23.02,3.08-2.01,19.14-1.61,22.09.54,1.74,1.34,2.68,4.02,3.08,9.91.8,11.38-1.61,13.65-14.46,13.65-9.1,0-9.37.13-9.37,3.35s.27,3.35,9.24,3.35c17.14,0,21.55-4.02,21.55-19.41,0-10.17-2.54-16.2-7.5-18.07-4.55-1.74-24.5-1.47-28.25.27Z"/>
  <path class="cls-5" d="M353.47,43.37v3.35h13.52c14.32,0,18.61,1.2,18.61,5.22,0,2.28-1.34,2.54-13.52,3.08-12.85.4-13.65.54-16.73,4.15-4.42,5.22-4.15,10.84.67,15.8,3.88,3.88,4.15,3.88,19.14,3.88,10.04,0,15.8-.54,16.87-1.61,2.41-2.41,2.14-25.57-.27-30.39-2.95-5.49-7.36-6.83-23.56-6.83h-14.72v3.35ZM385.33,66.39l-.4,5.09-9.37.4c-5.09.27-10.58.13-12.18-.27-3.61-.94-4.95-4.15-3.21-7.63,1.2-2.28,2.95-2.54,13.52-2.54h12.05l-.4,4.95Z"/>
  <path class="cls-5" d="M410.36,41.5c-4.95,2.41-6.29,6.29-6.16,17.54,0,5.76.8,11.78,1.47,13.12,2.68,4.95,8.43,6.69,22.76,6.69h13.39v-3.35q0-3.35-12.45-3.35c-16.6,0-18.34-1.2-18.34-12.58s1.34-12.85,17.8-12.85q12.98,0,12.98-3.35v-3.35l-14.32.13c-8.03,0-15.66.67-17.13,1.34Z"/>
  <path class="cls-5" d="M455.34,43.5c-4.02,3.35-4.15,3.75-4.15,14.86,0,6.16.67,12.45,1.34,13.92,2.68,4.95,8.43,6.56,23.43,6.56h14.06v-6.69h-13.39c-11.78,0-13.79-.4-16.2-2.81-4.68-4.69-2.68-5.89,11.91-6.56,11.51-.54,14.06-1.07,16.46-3.48,4.15-4.28,3.88-12.32-.8-16.2-3.08-2.68-4.95-3.08-16.06-3.08s-12.85.27-16.6,3.48ZM484.39,50.6c.8,5.09-2.94,6.83-14.72,6.83s-13.39-1.34-10.58-7.5c1.47-3.21,1.87-3.35,13.12-2.94,11.38.4,11.78.54,12.18,3.61Z"/>
  <path class="cls-5" d="M558.28,59.3v19.54h6.69v-37.21c0-.54-1.47-1.07-3.35-1.34l-3.35-.4v19.41Z"/>
  <path class="cls-5" d="M581.44,41.36c-6.29,2.54-7.63,11.11-2.68,16.87,2.95,3.35,4.15,3.75,15.79,4.42,11.91.8,12.58.94,12.98,4.02.27,1.74-.27,3.75-1.34,4.28-.94.67-7.9,1.2-15.26,1.2-13.65,0-15.8.8-14.32,4.95.4,1.34,4.82,1.74,15.8,1.74,14.05,0,15.53-.27,18.87-3.21,4.82-4.02,5.22-11.51.8-15.93-2.54-2.41-4.95-3.08-15.39-3.61l-12.32-.67v-8.03l14.72-.67c13.65-.67,14.72-.94,14.72-3.35,0-2.54-.94-2.68-14.72-2.94-8.03-.13-16.06.27-17.67.94Z"/>
  <path class="cls-5" d="M625.88,41.63c-.4,1.07-.54,9.64-.4,19.28l.4,17.27h6.69v-18.74c0-18.47,0-18.74-3.08-19.14-1.61-.27-3.21.4-3.61,1.34Z"/>
  <path class="cls-5" d="M647.83,43.91c-3.61,3.75-3.88,4.55-3.88,14.86,0,6.02.67,12.05,1.34,13.52,2.54,4.55,8.57,6.56,19.81,6.56,17.54,0,22.76-5.76,21.28-23.43-.67-6.83-1.34-8.57-4.82-11.65-4.02-3.48-4.95-3.75-17-3.75s-12.98.13-16.73,3.88ZM676.61,48.86c3.08,2.94,2.95,17.54-.13,20.88-3.21,3.61-19.41,3.48-23.16-.27-3.48-3.48-3.75-16.6-.4-20.35,2.95-3.21,20.48-3.48,23.69-.27Z"/>
  <path class="cls-5" d="M697.5,59.43v19.41h6.56l.4-15.8.4-15.66,10.71-.4c15.4-.54,15.93,0,16.47,17.67.53,13.92.53,14.19,3.75,14.19s3.21-.13,3.21-14.19c0-11.91-.4-14.99-2.68-18.61-3.35-5.49-5.35-6.02-23.69-6.02h-15.13v19.41Z"/>
  <path class="cls-1" d="M330.74,113.93v17.46h-2.05l-9.51-13.71h-.17v13.71h-2.11v-17.46h2.05l9.55,13.74h.17v-13.74h2.08ZM345.05,131.38h-2.22l6.41-17.46h2.18l6.41,17.46h-2.22l-5.22-14.69h-.14l-5.22,14.69ZM345.87,124.56h8.93v1.88h-8.93v-1.88ZM379.46,118.29c-.1-.86-.52-1.53-1.24-2.01-.73-.48-1.62-.72-2.68-.72-.77,0-1.45.12-2.03.37-.57.25-1.02.59-1.35,1.03-.32.44-.48.93-.48,1.49,0,.47.11.87.33,1.2.23.33.52.6.87.83.35.22.72.39,1.11.54.39.14.74.25,1.07.33l1.77.48c.45.12.96.28,1.52.49.56.21,1.1.5,1.61.86.52.36.94.82,1.28,1.38.33.56.5,1.25.5,2.07,0,.94-.25,1.8-.74,2.56-.49.76-1.2,1.37-2.15,1.81-.94.45-2.08.67-3.42.67-1.25,0-2.33-.2-3.25-.61-.91-.4-1.62-.97-2.15-1.69-.52-.72-.81-1.56-.88-2.51h2.18c.06.66.28,1.2.67,1.64.39.43.89.74,1.48.95.6.21,1.25.31,1.94.31.81,0,1.53-.13,2.17-.39.64-.27,1.15-.64,1.52-1.11.38-.48.56-1.03.56-1.67,0-.58-.16-1.05-.49-1.42s-.75-.66-1.28-.89c-.53-.23-1.1-.43-1.71-.6l-2.15-.61c-1.36-.39-2.44-.95-3.24-1.68-.8-.73-1.19-1.68-1.19-2.86,0-.98.26-1.83.79-2.56.54-.73,1.25-1.3,2.15-1.71.9-.41,1.91-.61,3.03-.61s2.12.2,3,.61c.88.4,1.57.94,2.08,1.64.52.69.79,1.48.82,2.36h-2.04ZM395.29,131.38h-2.22l6.41-17.46h2.18l6.41,17.46h-2.22l-5.22-14.69h-.14l-5.22,14.69ZM396.11,124.56h8.93v1.88h-8.93v-1.88ZM441.65,131.38h-5.39v-17.46h5.62c1.69,0,3.14.35,4.35,1.05,1.2.69,2.13,1.69,2.77,2.99.64,1.29.96,2.85.96,4.65s-.32,3.38-.97,4.7c-.65,1.31-1.59,2.31-2.83,3.02-1.24.7-2.74,1.05-4.52,1.05ZM438.38,129.51h3.14c1.44,0,2.64-.28,3.59-.84.95-.56,1.66-1.35,2.12-2.38.47-1.03.7-2.25.7-3.67s-.23-2.62-.69-3.64c-.46-1.02-1.15-1.81-2.06-2.35-.91-.55-2.05-.83-3.42-.83h-3.38v13.71ZM462.77,131.38h-2.22l6.41-17.46h2.18l6.41,17.46h-2.22l-5.22-14.69h-.14l-5.21,14.69ZM463.59,124.56h8.93v1.88h-8.93v-1.88ZM484.64,115.8v-1.88h13.09v1.88h-5.49v15.58h-2.11v-15.58h-5.49ZM509.03,131.38h-2.22l6.41-17.46h2.18l6.41,17.46h-2.22l-5.22-14.69h-.14l-5.22,14.69ZM509.85,124.56h8.93v1.88h-8.93v-1.88ZM550,131.38v-17.46h10.53v1.88h-8.42v5.9h7.88v1.88h-7.88v5.93h8.56v1.88h-10.67ZM574.73,113.93l4.5,7.26h.14l4.5-7.26h2.49l-5.49,8.73,5.49,8.73h-2.49l-4.5-7.12h-.14l-4.5,7.12h-2.49l5.62-8.73-5.62-8.73h2.49ZM598.46,131.38v-17.46h5.9c1.37,0,2.49.25,3.36.74.88.49,1.52,1.15,1.94,1.99.42.84.63,1.77.63,2.8s-.21,1.96-.63,2.8c-.41.84-1.06,1.51-1.93,2.01-.87.49-1.98.74-3.34.74h-4.23v-1.88h4.16c.94,0,1.69-.16,2.26-.49.57-.32.98-.76,1.24-1.31.26-.56.39-1.18.39-1.88s-.13-1.32-.39-1.88c-.26-.55-.67-.98-1.24-1.3-.57-.32-1.34-.48-2.28-.48h-3.72v15.58h-2.11ZM623.06,131.38v-17.46h2.11v15.58h8.11v1.88h-10.23ZM659.97,122.66c0,1.84-.33,3.43-1,4.77-.66,1.34-1.58,2.38-2.73,3.1-1.16.73-2.48,1.09-3.97,1.09s-2.81-.36-3.97-1.09c-1.16-.73-2.07-1.76-2.74-3.1-.66-1.34-1-2.93-1-4.77s.33-3.43,1-4.77c.66-1.34,1.58-2.38,2.74-3.1,1.16-.73,2.48-1.09,3.97-1.09s2.81.36,3.97,1.09c1.16.73,2.07,1.76,2.73,3.1.66,1.34,1,2.93,1,4.77ZM657.92,122.66c0-1.51-.25-2.79-.76-3.83-.5-1.04-1.18-1.83-2.04-2.36-.85-.53-1.81-.8-2.86-.8s-2.01.27-2.87.8c-.85.53-1.53,1.32-2.04,2.36-.5,1.04-.75,2.31-.75,3.83s.25,2.79.75,3.83c.51,1.04,1.18,1.83,2.04,2.36.86.53,1.82.8,2.87.8s2.01-.27,2.86-.8c.86-.53,1.54-1.32,2.04-2.36.5-1.04.76-2.32.76-3.83ZM672.88,131.38v-17.46h5.9c1.36,0,2.48.23,3.36.7.88.46,1.52,1.09,1.94,1.9.42.81.63,1.72.63,2.75s-.21,1.94-.63,2.74c-.42.8-1.07,1.42-1.93,1.88-.87.45-1.98.67-3.33.67h-4.77v-1.91h4.7c.93,0,1.68-.14,2.25-.41.57-.27.99-.66,1.24-1.16.26-.51.39-1.11.39-1.81s-.13-1.31-.39-1.83c-.26-.52-.68-.93-1.25-1.21-.57-.29-1.33-.43-2.28-.43h-3.72v15.58h-2.11ZM681.1,123.54l4.3,7.84h-2.46l-4.23-7.84h2.39ZM697.59,131.38v-17.46h10.53v1.88h-8.42v5.9h7.88v1.88h-7.88v5.93h8.56v1.88h-10.67ZM721.29,131.38v-17.46h5.9c1.36,0,2.48.23,3.36.7.88.46,1.52,1.09,1.94,1.9.42.81.63,1.72.63,2.75s-.21,1.94-.63,2.74c-.42.8-1.07,1.42-1.93,1.88-.87.45-1.98.67-3.33.67h-4.77v-1.91h4.7c.93,0,1.68-.14,2.25-.41.57-.27.99-.66,1.24-1.16.26-.51.39-1.11.39-1.81s-.13-1.31-.39-1.83c-.26-.52-.68-.93-1.25-1.21-.57-.29-1.33-.43-2.28-.43h-3.72v15.58h-2.11ZM729.51,123.54l4.29,7.84h-2.45l-4.23-7.84h2.39Z"/>
  <ellipse class="cls-4" cx="166.87" cy="70.77" rx="63.45" ry="22.28" transform="translate(-14.36 67.66) rotate(-22)"/>
  <circle class="cls-2" cx="164.54" cy="66.54" r="38.03"/>
  <path class="cls-3" d="M164.54,28.52c-21.15,0-38.02,17.1-38.02,38.02s17.1,38.03,38.02,38.03"/>
  <circle class="cls-6" cx="221.69" cy="52.82" r="3.37"/>
</svg>