<svg width="762" height="159" viewBox="0 0 762 159" fill="none" xmlns="http://www.w3.org/2000/svg">
<path d="M211.927 26.6367C201.62 30.7864 200.281 48.1887 209.92 53.4094C211.258 54.0787 218.621 55.0158 226.251 55.5512C233.881 56.0867 240.976 57.0237 241.913 57.693C244.055 59.5671 244.055 67.4651 241.779 69.2053C240.708 70.1424 232.676 70.9455 222.637 71.0794L205.368 71.481L204.967 75.0953L204.565 78.8435H222.369C237.629 78.8435 240.842 78.4419 244.456 76.1662C250.213 72.6858 251.953 68.9376 251.15 61.8428C249.945 51.1337 244.189 48.0549 225.314 48.0549C212.998 48.0549 210.99 46.8501 211.66 39.7553C212.329 33.196 216.077 31.8574 233.48 32.1251L248.205 32.3928L248.606 28.7785L249.008 25.298L231.873 25.4319C222.503 25.4319 213.4 25.9674 211.927 26.6367Z" fill="#FFFEFE"/>
<path d="M456.363 25.8335C456.363 27.1721 478.048 75.4969 479.387 77.1033C480.19 78.0403 482.466 78.8435 484.608 78.8435C488.088 78.8435 488.891 77.7726 495.183 64.7878C498.797 57.0237 501.876 50.4644 501.876 50.0628C501.876 49.7951 503.616 45.7792 505.758 41.0939C507.9 36.4087 510.176 30.9203 510.577 28.9124C511.514 25.298 511.381 25.1642 507.766 25.5658C504.152 25.9673 503.349 27.306 495.049 46.4485C490.23 57.693 485.679 67.4651 484.876 68.2683C483.938 69.2053 480.592 62.7799 474.166 47.7871C465.064 26.5028 464.796 25.9673 460.646 25.5658C458.237 25.298 456.363 25.4319 456.363 25.8335Z" fill="#FFFEFE"/>
<path d="M519.279 28.6446C519.279 32.7944 522.759 34.4007 525.436 31.7235C528.114 29.0462 526.373 25.298 522.491 25.298C519.948 25.298 519.279 25.9673 519.279 28.6446Z" fill="#FFFEFE"/>
<path d="M586.746 27.172C585.407 30.6525 587.281 33.5975 590.494 33.0621C592.77 32.7943 593.573 31.7234 593.573 29.3139C593.573 26.9043 592.77 25.8334 590.494 25.5657C588.754 25.298 587.147 25.9673 586.746 27.172Z" fill="#FFFEFE"/>
<path d="M268.016 41.6294C262.126 44.4405 260.788 50.1967 261.189 72.418L261.591 92.8992H264.938H268.284L268.953 71.0794C269.489 53.6771 270.024 48.9919 271.631 48.0548C274.71 46.0469 290.773 46.4485 293.718 48.5903C295.458 49.9289 296.396 52.6062 296.797 58.4962C297.6 69.8746 295.191 72.1503 282.34 72.1503C273.237 72.1503 272.969 72.2842 272.969 75.4969C272.969 78.7096 273.237 78.8435 282.206 78.8435C299.341 78.8435 303.758 74.8276 303.758 59.4333C303.758 49.2596 301.215 43.2357 296.262 41.3617C291.71 39.6214 271.765 39.8892 268.016 41.6294Z" fill="#FFFEFE"/>
<path d="M314.467 43.3696V46.7162H327.987C342.311 46.7162 346.594 47.921 346.594 51.9369C346.594 54.2126 345.256 54.4803 333.074 55.0158C320.223 55.4174 319.42 55.5512 316.341 59.1655C311.924 64.3862 312.191 70.0085 317.011 74.9615C320.893 78.8435 321.16 78.8435 336.153 78.8435C346.193 78.8435 351.949 78.3081 353.02 77.2371C355.429 74.8276 355.162 51.6692 352.752 46.8501C349.807 41.3617 345.39 40.023 329.192 40.023H314.467V43.3696ZM346.327 66.3942L345.925 71.481L336.555 71.8826C331.468 72.1503 325.979 72.0165 324.373 71.6149C320.759 70.6778 319.42 67.4651 321.16 63.9846C322.365 61.709 324.105 61.4412 334.681 61.4412H346.728L346.327 66.3942Z" fill="#FFFEFE"/>
<path d="M371.359 41.4955C366.406 43.9051 365.068 47.7871 365.202 59.0317C365.202 64.7878 366.005 70.8117 366.674 72.1503C369.351 77.1033 375.107 78.8435 389.431 78.8435H402.817V75.4969C402.817 72.1503 402.817 72.1503 390.368 72.1503C373.769 72.1503 372.029 70.9455 372.029 59.5671C372.029 47.6533 373.367 46.7162 389.832 46.7162C402.817 46.7162 402.817 46.7162 402.817 43.3696V40.023L388.494 40.1569C380.462 40.1569 372.832 40.8262 371.359 41.4955Z" fill="#FFFEFE"/>
<path d="M416.337 43.5035C412.321 46.8501 412.188 47.2517 412.188 58.3624C412.188 64.5201 412.857 70.8117 413.526 72.2842C416.204 77.2371 421.96 78.8435 436.952 78.8435H451.008V75.4969V72.1503H437.622C425.842 72.1503 423.834 71.7487 421.424 69.3392C416.739 64.654 418.747 63.4492 433.338 62.7799C444.85 62.2444 447.394 61.709 449.803 59.2994C453.953 55.0158 453.685 46.984 449 43.1019C445.921 40.4246 444.047 40.023 432.936 40.023C421.424 40.023 420.086 40.2908 416.337 43.5035ZM445.386 50.5983C446.189 55.6851 442.441 57.4253 430.661 57.4253C419.015 57.4253 417.274 56.0867 420.086 49.929C421.558 46.7162 421.96 46.5824 433.204 46.984C444.583 47.3855 444.984 47.5194 445.386 50.5983Z" fill="#FFFEFE"/>
<path d="M519.279 59.2994V78.8435H522.625H525.972V60.7719C525.972 50.866 525.972 42.2987 525.972 41.6294C525.972 41.094 524.499 40.5585 522.625 40.2908L519.279 39.8892V59.2994Z" fill="#FFFEFE"/>
<path d="M542.437 41.3617C536.145 43.9051 534.807 52.4724 539.76 58.2285C542.705 61.5751 543.909 61.9767 555.555 62.646C567.469 63.4492 568.139 63.583 568.54 66.6619C568.808 68.4021 568.273 70.4101 567.202 70.9455C566.265 71.6149 559.304 72.1503 551.941 72.1503C538.287 72.1503 536.145 72.9535 537.618 77.1033C538.019 78.4419 542.437 78.8435 553.414 78.8435C567.469 78.8435 568.942 78.5758 572.288 75.6308C577.108 71.6149 577.509 64.1185 573.092 59.701C570.548 57.2915 568.139 56.6221 557.697 56.0867L545.382 55.4174V51.4015V47.3855L560.107 46.7162C573.761 46.0469 574.832 45.7792 574.832 43.3696C574.832 40.8262 573.895 40.6924 560.107 40.4246C552.075 40.2908 544.043 40.6924 542.437 41.3617Z" fill="#FFFEFE"/>
<path d="M586.88 41.6293C586.478 42.7002 586.344 51.2675 586.478 60.9057L586.88 78.1741H590.226H593.573V59.4332C593.573 40.96 593.573 40.6922 590.494 40.2907C588.888 40.0229 587.281 40.6922 586.88 41.6293Z" fill="#FFFEFE"/>
<path d="M608.833 43.9051C605.219 47.6533 604.951 48.4565 604.951 58.764C604.951 64.7878 605.621 70.8117 606.29 72.2842C608.833 76.8356 614.857 78.8435 626.102 78.8435C643.638 78.8435 648.859 73.0874 647.386 55.4174C646.717 48.5903 646.047 46.8501 642.567 43.7712C638.551 40.2908 637.614 40.023 625.566 40.023C613.251 40.023 612.582 40.1569 608.833 43.9051ZM637.614 48.858C640.693 51.803 640.559 66.3942 637.48 69.7408C634.267 73.3551 618.07 73.2212 614.322 69.473C610.841 65.9926 610.574 52.874 613.92 49.1258C616.865 45.913 634.401 45.6453 637.614 48.858Z" fill="#FFFEFE"/>
<path d="M658.497 59.4333V78.8435H661.843H665.056L665.458 63.0476L665.859 47.3855L676.568 46.984C691.963 46.4485 692.498 46.984 693.034 64.654C693.569 78.5758 693.569 78.8435 696.782 78.8435C699.994 78.8435 699.994 78.7096 699.994 64.654C699.994 52.7401 699.593 49.6612 697.317 46.0469C693.971 40.5585 691.963 40.023 673.623 40.023H658.497V59.4333Z" fill="#FFFEFE"/>
<path d="M295.282 98.11V115.565H293.237L283.726 101.86H283.555V115.565H281.441V98.11H283.487L293.032 111.849H293.203V98.11H295.282ZM309.588 115.565H307.372L313.781 98.11H315.963L322.372 115.565H320.156L314.94 100.871H314.804L309.588 115.565ZM310.406 108.746H319.338V110.621H310.406V108.746ZM343.996 102.474C343.894 101.61 343.479 100.94 342.752 100.462C342.024 99.985 341.132 99.7464 340.076 99.7464C339.303 99.7464 338.627 99.8714 338.047 100.121C337.473 100.371 337.024 100.715 336.701 101.153C336.382 101.59 336.223 102.087 336.223 102.644C336.223 103.11 336.334 103.511 336.556 103.846C336.783 104.175 337.073 104.451 337.425 104.673C337.777 104.888 338.147 105.067 338.533 105.209C338.919 105.346 339.274 105.457 339.598 105.542L341.371 106.019C341.826 106.138 342.331 106.303 342.888 106.513C343.451 106.724 343.987 107.011 344.499 107.374C345.016 107.732 345.442 108.192 345.777 108.755C346.112 109.317 346.28 110.008 346.28 110.826C346.28 111.769 346.033 112.621 345.539 113.383C345.05 114.144 344.334 114.749 343.391 115.198C342.453 115.647 341.314 115.871 339.973 115.871C338.723 115.871 337.641 115.67 336.726 115.266C335.817 114.863 335.101 114.3 334.578 113.579C334.061 112.857 333.769 112.019 333.701 111.065H335.882C335.939 111.724 336.161 112.269 336.547 112.701C336.939 113.127 337.434 113.445 338.03 113.655C338.632 113.86 339.28 113.962 339.973 113.962C340.78 113.962 341.505 113.832 342.147 113.57C342.789 113.303 343.297 112.934 343.672 112.462C344.047 111.985 344.235 111.428 344.235 110.792C344.235 110.212 344.073 109.741 343.749 109.377C343.425 109.013 342.999 108.718 342.47 108.491C341.942 108.263 341.371 108.065 340.757 107.894L338.61 107.28C337.246 106.888 336.166 106.329 335.371 105.602C334.576 104.874 334.178 103.923 334.178 102.746C334.178 101.769 334.442 100.917 334.97 100.19C335.505 99.4566 336.22 98.8884 337.118 98.485C338.022 98.0759 339.03 97.8714 340.144 97.8714C341.269 97.8714 342.269 98.0731 343.144 98.4765C344.019 98.8742 344.712 99.4197 345.223 100.113C345.74 100.806 346.013 101.593 346.041 102.474H343.996ZM359.831 115.565H357.615L364.024 98.11H366.206L372.615 115.565H370.399L365.183 100.871H365.047L359.831 115.565ZM360.649 108.746H369.581V110.621H360.649V108.746ZM406.19 115.565H400.804V98.11H406.429C408.122 98.11 409.571 98.4595 410.776 99.1583C411.98 99.8515 412.903 100.849 413.545 102.15C414.188 103.445 414.509 104.996 414.509 106.803C414.509 108.621 414.185 110.187 413.537 111.499C412.889 112.806 411.946 113.812 410.707 114.516C409.469 115.215 407.963 115.565 406.19 115.565ZM402.918 113.69H406.054C407.497 113.69 408.693 113.411 409.642 112.854C410.591 112.298 411.298 111.505 411.764 110.477C412.23 109.448 412.463 108.224 412.463 106.803C412.463 105.394 412.233 104.181 411.773 103.164C411.313 102.141 410.625 101.357 409.71 100.812C408.795 100.261 407.656 99.985 406.293 99.985H402.918V113.69ZM427.31 115.565H425.094L431.503 98.11H433.685L440.094 115.565H437.878L432.662 100.871H432.525L427.31 115.565ZM428.128 108.746H437.06V110.621H428.128V108.746ZM449.179 99.985V98.11H462.27V99.985H456.781V115.565H454.667V99.985H449.179ZM473.569 115.565H471.353L477.762 98.11H479.944L486.353 115.565H484.137L478.921 100.871H478.785L473.569 115.565ZM474.387 108.746H483.319V110.621H474.387V108.746ZM514.541 115.565V98.11H525.076V99.985H516.655V105.883H524.53V107.758H516.655V113.69H525.212V115.565H514.541ZM539.268 98.11L543.768 105.371H543.904L548.404 98.11H550.893L545.404 106.837L550.893 115.565H548.404L543.904 108.44H543.768L539.268 115.565H536.779L542.404 106.837L536.779 98.11H539.268ZM563.004 115.565V98.11H568.901C570.271 98.11 571.39 98.3572 572.259 98.8515C573.134 99.3401 573.782 100.002 574.203 100.837C574.623 101.673 574.833 102.604 574.833 103.633C574.833 104.661 574.623 105.596 574.203 106.437C573.788 107.278 573.146 107.948 572.276 108.448C571.407 108.942 570.293 109.19 568.935 109.19H564.708V107.315H568.867C569.805 107.315 570.558 107.153 571.126 106.829C571.694 106.505 572.106 106.067 572.362 105.516C572.623 104.959 572.754 104.332 572.754 103.633C572.754 102.934 572.623 102.309 572.362 101.758C572.106 101.207 571.691 100.775 571.117 100.462C570.543 100.144 569.782 99.985 568.833 99.985H565.117V115.565H563.004ZM587.598 115.565V98.11H589.712V113.69H597.825V115.565H587.598ZM624.506 106.837C624.506 108.678 624.173 110.269 623.508 111.61C622.844 112.951 621.932 113.985 620.773 114.712C619.614 115.44 618.29 115.803 616.801 115.803C615.312 115.803 613.989 115.44 612.83 114.712C611.67 113.985 610.758 112.951 610.094 111.61C609.429 110.269 609.097 108.678 609.097 106.837C609.097 104.996 609.429 103.405 610.094 102.065C610.758 100.724 611.67 99.6896 612.83 98.9623C613.989 98.235 615.312 97.8714 616.801 97.8714C618.29 97.8714 619.614 98.235 620.773 98.9623C621.932 99.6896 622.844 100.724 623.508 102.065C624.173 103.405 624.506 104.996 624.506 106.837ZM622.46 106.837C622.46 105.326 622.207 104.05 621.702 103.011C621.202 101.971 620.523 101.184 619.665 100.65C618.812 100.116 617.858 99.8487 616.801 99.8487C615.744 99.8487 614.787 100.116 613.929 100.65C613.077 101.184 612.398 101.971 611.892 103.011C611.392 104.05 611.142 105.326 611.142 106.837C611.142 108.349 611.392 109.624 611.892 110.664C612.398 111.704 613.077 112.491 613.929 113.025C614.787 113.559 615.744 113.826 616.801 113.826C617.858 113.826 618.812 113.559 619.665 113.025C620.523 112.491 621.202 111.704 621.702 110.664C622.207 109.624 622.46 108.349 622.46 106.837ZM637.42 115.565V98.11H643.317C644.681 98.11 645.8 98.343 646.675 98.8089C647.55 99.2691 648.198 99.9026 648.618 100.709C649.039 101.516 649.249 102.434 649.249 103.462C649.249 104.491 649.039 105.403 648.618 106.198C648.198 106.994 647.553 107.619 646.684 108.073C645.814 108.522 644.704 108.746 643.351 108.746H638.579V106.837H643.283C644.215 106.837 644.965 106.701 645.533 106.428C646.107 106.155 646.522 105.769 646.778 105.269C647.039 104.763 647.17 104.161 647.17 103.462C647.17 102.763 647.039 102.153 646.778 101.63C646.516 101.107 646.099 100.704 645.525 100.42C644.951 100.13 644.192 99.985 643.249 99.985H639.533V115.565H637.42ZM645.636 107.724L649.931 115.565H647.476L643.249 107.724H645.636ZM662.131 115.565V98.11H672.665V99.985H664.245V105.883H672.12V107.758H664.245V113.69H672.802V115.565H662.131ZM685.835 115.565V98.11H691.733C693.096 98.11 694.216 98.343 695.091 98.8089C695.966 99.2691 696.613 99.9026 697.034 100.709C697.454 101.516 697.664 102.434 697.664 103.462C697.664 104.491 697.454 105.403 697.034 106.198C696.613 106.994 695.968 107.619 695.099 108.073C694.23 108.522 693.119 108.746 691.767 108.746H686.994V106.837H691.699C692.63 106.837 693.38 106.701 693.949 106.428C694.522 106.155 694.937 105.769 695.193 105.269C695.454 104.763 695.585 104.161 695.585 103.462C695.585 102.763 695.454 102.153 695.193 101.63C694.932 101.107 694.514 100.704 693.94 100.42C693.366 100.13 692.608 99.985 691.664 99.985H687.949V115.565H685.835ZM694.051 107.724L698.346 115.565H695.892L691.664 107.724H694.051Z" fill="white"/>
<path d="M41.2672 0.745983C35.5111 2.62007 31.2275 6.10053 28.6841 10.7858C26.6761 14.5339 25.2036 15.471 20.5184 16.2742C-4.38027 20.0224 -7.05755 52.9528 14.8961 86.6865L20.2506 94.986L14.8961 106.498C8.6045 119.885 6.59655 126.578 6.59655 134.476C6.59655 145.988 13.1559 151.878 24.4004 150.406C28.0147 149.87 31.2275 150.272 33.3693 151.476C35.2434 152.547 38.59 153.351 40.9995 153.484C46.2202 153.484 57.8663 149.335 64.0241 145.051L68.5754 141.972L81.4263 148.398C97.7577 156.697 112.483 160.044 121.585 157.5C124.932 156.563 129.617 155.894 131.759 156.028C134.035 156.028 141.263 156.296 147.823 156.429C158.532 156.831 160.54 156.429 165.76 153.484C187.313 141.303 179.682 103.687 148.76 69.2842L140.46 59.9137L144.878 52.8189C151.972 41.8421 159.335 26.5817 157.996 25.6446C157.327 25.243 153.311 31.5346 149.027 39.7003C139.657 57.9058 138.72 58.7089 134.169 54.1576L130.688 50.6771L133.365 46.7951C144.744 30.7314 149.295 9.98258 142.736 3.82485C136.177 -2.33288 123.46 0.61212 106.459 12.2583C98.9625 17.3451 96.6868 18.2821 95.0804 17.0774C89.592 13.3292 75.4025 5.69894 69.5125 3.42326C61.8822 0.478256 46.3541 -0.994244 41.2672 0.745983ZM58.9372 3.55712C62.9532 4.22644 71.6543 7.57303 78.2136 10.9196C92.8047 18.1483 96.0175 20.4239 94.1434 22.298C93.2063 23.2351 90.3952 22.6996 85.4422 20.4239C65.7643 11.7228 45.0154 8.91167 35.9127 13.7308C33.637 14.8017 31.4952 15.471 30.9597 15.0694C29.2195 13.3292 34.4402 7.03758 39.3931 4.76189C45.5509 1.95076 48.8975 1.68303 58.9372 3.55712ZM141.13 6.23439C145.279 10.7858 143.271 21.6287 135.909 36.4876L129.483 49.0708L116.231 35.6844C109.002 28.3219 102.443 22.298 101.64 22.298C98.427 22.298 100.837 19.353 108.467 14.2662C124.263 3.42326 136.043 0.61212 141.13 6.23439ZM64.0241 15.7387C67.3707 16.408 74.4654 18.9514 79.9538 21.2271L89.8597 25.3769L84.5052 30.7314L79.0168 36.086L73.7961 32.7394C66.4336 27.7864 53.8504 21.7626 45.6847 19.0853C41.9366 17.7467 38.9916 16.1403 39.527 15.471C40.4641 13.8646 56.6616 13.9985 64.0241 15.7387ZM28.0147 18.9514C28.0147 19.353 27.0777 21.0933 26.0068 22.8335C19.3136 33.0071 23.5972 55.6301 36.1804 76.379L41.6688 85.4817L37.2513 94.7183C34.7079 99.8051 32.1645 103.821 31.3613 103.553C28.8179 102.75 17.0379 85.8833 11.8172 75.4419C-2.64005 46.9289 0.0372263 25.1092 18.3765 19.6208C22.6602 18.2821 28.0147 18.0144 28.0147 18.9514ZM40.0625 20.2901C50.2361 22.9674 76.2057 35.8183 76.2057 38.3617C76.2057 38.7633 72.0559 44.1178 66.8352 50.2755C61.7484 56.5671 54.6536 65.9376 51.1731 71.426C47.5588 76.7805 44.0784 81.198 43.2752 81.198C41.6688 81.198 35.5111 70.6228 31.4952 61.1185C25.2036 45.9919 23.865 35.0151 27.3454 26.7155C30.1566 20.1562 32.0306 18.1483 34.5741 18.8176C35.7788 19.0853 38.1884 19.7546 40.0625 20.2901ZM104.986 29.1251L110.341 34.6135L103.38 30.196C96.4191 26.0462 94.545 23.6367 98.0254 23.6367C98.9625 23.6367 102.175 26.0462 104.986 29.1251ZM100.837 31.8023C106.593 35.4167 112.884 40.1019 125.467 50.0078C127.342 51.4803 126.806 52.8189 121.585 60.4492C118.373 65.2683 115.294 69.1503 114.758 69.1503C114.357 69.1503 110.341 65.2683 106.057 60.583C101.774 55.8978 94.545 48.803 89.8597 44.921L81.4263 37.8262L86.5132 32.7394C89.1904 29.9283 92.0016 27.6526 92.6709 27.6526C93.4741 27.6526 97.0884 29.5267 100.837 31.8023ZM90.6629 49.3385C100.167 57.7719 112.349 70.7567 112.349 72.4969C112.349 75.1742 75.9379 116.003 73.5284 116.003C72.9929 116.003 69.7802 113.459 66.2997 110.514C58.0002 103.286 56.5277 104.892 64.5595 112.522L70.7172 118.546L64.8272 123.901C61.4807 126.979 58.2679 129.389 57.4647 129.389C55.5906 129.389 34.7079 109.309 34.7079 107.435C34.7079 104.758 42.6059 89.2299 44.0784 89.2299C44.7477 89.2299 45.417 89.6315 45.417 90.1669C45.417 92.1749 54.5197 101.947 55.4568 101.01C55.9922 100.608 53.8504 96.8601 50.7716 92.7103L45.1493 85.3478L54.3859 71.9614C64.6934 56.8349 77.5443 41.1728 79.6861 41.1728C80.4893 41.0389 85.4422 44.7871 90.6629 49.3385ZM132.562 58.7089C133.901 60.4492 134.972 62.3233 135.106 62.8587C135.106 64.4651 124.397 79.8594 123.326 79.8594C122.656 79.8594 120.916 78.1192 119.31 75.9774L116.499 72.0953L122.656 63.9296C126.003 59.5121 128.948 55.7639 129.35 55.7639C129.751 55.7639 131.09 57.1026 132.562 58.7089ZM154.516 80.5287C172.989 104.758 179.548 127.649 172.454 142.24C168.17 151.343 162.28 154.154 148.224 154.154C141.799 154.02 136.177 153.618 135.641 153.083C134.169 151.61 137.515 148.531 141.531 147.728C146.886 146.657 152.106 141.972 155.453 135.681C158.933 128.987 159.335 113.995 156.658 102.616C154.382 93.3796 147.153 75.9774 143.271 70.7567C141.799 68.481 140.46 66.2053 140.46 65.6699C140.46 63.7958 147.287 71.0244 154.516 80.5287ZM144.61 78.7885C151.437 92.3087 155.185 105.695 155.453 117.074C155.453 122.83 155.051 128.987 154.516 130.861C152.91 135.814 148.626 141.303 144.476 143.445L140.728 145.319L141.397 134.074C142.067 124.436 141.665 121.223 138.72 111.719C136.712 105.561 133.098 97.1278 130.42 92.8442C127.877 88.5605 125.735 84.5446 125.735 83.7415C125.735 83.0721 128.279 78.7885 131.357 74.371C137.917 65.2683 137.649 65.1344 144.61 78.7885ZM118.239 79.1901C119.444 80.9303 120.381 83.0721 120.381 83.7415C120.381 86.8203 86.9147 125.507 84.3713 125.373C83.9697 125.239 81.8279 123.767 79.6861 122.026L75.6702 118.814L85.71 108.372C91.1984 102.616 99.7657 92.978 104.852 86.8203C109.805 80.7965 114.357 75.8435 115.026 75.8435C115.562 75.8435 117.034 77.316 118.239 79.1901ZM130.688 99.8051C133.767 105.963 136.98 113.861 137.649 117.609C139.523 126.31 139.523 137.822 137.515 142.106C136.31 144.917 135.106 145.453 130.287 145.453C121.987 145.453 109.002 141.035 97.2223 134.074L86.7809 127.916L96.5529 117.609C101.907 111.987 109.939 102.884 114.223 97.5294C118.507 92.1749 122.79 88.0251 123.593 88.2928C124.397 88.5605 127.609 93.7812 130.688 99.8051ZM24.9359 100.876C30.692 108.239 30.692 108.105 27.8809 118.011C25.2036 127.916 24.5343 140.767 26.6761 144.114C28.2825 146.657 26.0068 148.13 20.6522 148.13C10.4786 147.996 6.86427 138.224 11.4156 122.562C13.6913 114.664 20.92 98.6003 22.2586 98.6003C22.6602 98.6003 23.865 99.6712 24.9359 100.876ZM44.48 122.16C56.26 133.137 56.3938 132.334 40.8656 140.901C32.0306 145.72 31.6291 145.854 29.8888 143.445C28.8179 142.106 28.0147 137.956 28.0147 134.476C28.0147 127.515 31.8968 111.719 33.3693 112.254C33.9047 112.522 38.9916 116.94 44.48 122.16ZM78.0797 124.57L82.0957 127.649L77.4104 131.799C71.1188 137.555 68.8432 138.09 64.0241 134.744C61.8822 133.137 60.142 131.665 60.4097 131.397C64.0241 128.05 72.7252 121.357 73.2607 121.357C73.7961 121.357 75.9379 122.83 78.0797 124.57ZM113.286 147.327C118.507 150.004 123.593 152.146 124.397 152.146C125.2 152.146 125.601 152.681 125.2 153.351C123.727 155.626 114.892 156.296 106.593 154.689C98.5609 153.217 74.7332 143.043 73.1268 140.5C72.7252 139.83 75.1347 137.153 78.4813 134.476L84.5052 129.791L94.1434 136.216C99.3641 139.696 107.931 144.649 113.286 147.327ZM65.4966 140.232C65.4966 142.641 47.5588 150.004 41.6688 150.004C34.7079 150.138 32.9677 147.862 38.4561 145.586C40.4641 144.783 45.6847 141.704 49.9684 138.759L57.8663 133.673L61.6145 136.484C63.7563 137.956 65.4966 139.696 65.4966 140.232ZM132.428 149.469C132.428 151.209 128.412 151.209 125.735 149.469C124.263 148.531 124.798 148.13 128.145 148.13C130.42 148.13 132.428 148.665 132.428 149.469Z" fill="#FFFEFE"/>
</svg>
