<svg width="178" height="158" viewBox="0 0 178 158" fill="none" xmlns="http://www.w3.org/2000/svg">
<path d="M41.1037 0.743046C35.3704 2.60971 31.1037 6.07638 28.5704 10.743C26.5704 14.4764 25.1037 15.4097 20.4371 16.2097C-4.36292 19.943 -7.02959 52.743 14.8371 86.343L20.1704 94.6097L14.8371 106.076C8.57041 119.41 6.57041 126.076 6.57041 133.943C6.57041 145.41 13.1037 151.276 24.3037 149.81C27.9037 149.276 31.1037 149.676 33.2371 150.876C35.1037 151.943 38.4371 152.743 40.8371 152.876C46.0371 152.876 57.6371 148.743 63.7704 144.476L68.3037 141.41L81.1037 147.81C97.3704 156.076 112.037 159.41 121.104 156.876C124.437 155.943 129.104 155.276 131.237 155.41C133.504 155.41 140.704 155.676 147.237 155.81C157.904 156.21 159.904 155.81 165.104 152.876C186.57 140.743 178.97 103.276 148.17 69.0097L139.904 59.6764L144.304 52.6097C151.37 41.6764 158.704 26.4764 157.37 25.543C156.704 25.143 152.704 31.4097 148.437 39.543C139.104 57.6764 138.17 58.4764 133.637 53.943L130.17 50.4764L132.837 46.6097C144.17 30.6097 148.704 9.94305 142.17 3.80971C135.637 -2.32362 122.97 0.609713 106.037 12.2097C98.5704 17.2764 96.3037 18.2097 94.7037 17.0097C89.2371 13.2764 75.1037 5.67638 69.2371 3.40971C61.6371 0.476379 46.1704 -0.990287 41.1037 0.743046ZM58.7037 3.54305C62.7037 4.20971 71.3704 7.54305 77.9037 10.8764C92.4371 18.0764 95.6371 20.343 93.7704 22.2097C92.8371 23.143 90.0371 22.6097 85.1037 20.343C65.5037 11.6764 44.8371 8.87638 35.7704 13.6764C33.5037 14.743 31.3704 15.4097 30.8371 15.0097C29.1037 13.2764 34.3037 7.00971 39.2371 4.74305C45.3704 1.94305 48.7037 1.67638 58.7037 3.54305ZM140.57 6.20971C144.704 10.743 142.704 21.543 135.37 36.343L128.97 48.8764L115.77 35.543C108.57 28.2097 102.037 22.2097 101.237 22.2097C98.0371 22.2097 100.437 19.2764 108.037 14.2097C123.77 3.40971 135.504 0.609713 140.57 6.20971ZM63.7704 15.6764C67.1037 16.343 74.1704 18.8764 79.6371 21.143L89.5037 25.2764L84.1704 30.6097L78.7037 35.943L73.5037 32.6097C66.1704 27.6764 53.6371 21.6764 45.5037 19.0097C41.7704 17.6764 38.8371 16.0764 39.3704 15.4097C40.3037 13.8097 56.4371 13.943 63.7704 15.6764ZM27.9037 18.8764C27.9037 19.2764 26.9704 21.0097 25.9037 22.743C19.2371 32.8764 23.5037 55.4097 36.0371 76.0764L41.5037 85.143L37.1037 94.343C34.5704 99.4097 32.0371 103.41 31.2371 103.143C28.7037 102.343 16.9704 85.543 11.7704 75.143C-2.62959 46.743 0.0370789 25.0097 18.3037 19.543C22.5704 18.2097 27.9037 17.943 27.9037 18.8764ZM39.9037 20.2097C50.0371 22.8764 75.9037 35.6764 75.9037 38.2097C75.9037 38.6097 71.7704 43.943 66.5704 50.0764C61.5037 56.343 54.4371 65.6764 50.9704 71.143C47.3704 76.4764 43.9037 80.8764 43.1037 80.8764C41.5037 80.8764 35.3704 70.343 31.3704 60.8764C25.1037 45.8097 23.7704 34.8764 27.2371 26.6097C30.0371 20.0764 31.9037 18.0764 34.4371 18.743C35.6371 19.0097 38.0371 19.6764 39.9037 20.2097ZM104.57 29.0097L109.904 34.4764L102.97 30.0764C96.0371 25.943 94.1704 23.543 97.6371 23.543C98.5704 23.543 101.77 25.943 104.57 29.0097ZM100.437 31.6764C106.17 35.2764 112.437 39.943 124.97 49.8097C126.837 51.2764 126.304 52.6097 121.104 60.2097C117.904 65.0097 114.837 68.8764 114.304 68.8764C113.904 68.8764 109.904 65.0097 105.637 60.343C101.37 55.6764 94.1704 48.6097 89.5037 44.743L81.1037 37.6764L86.1704 32.6097C88.8371 29.8097 91.6371 27.543 92.3037 27.543C93.1037 27.543 96.7037 29.4097 100.437 31.6764ZM90.3037 49.143C99.7704 57.543 111.904 70.4764 111.904 72.2097C111.904 74.8764 75.6371 115.543 73.2371 115.543C72.7037 115.543 69.5037 113.01 66.0371 110.076C57.7704 102.876 56.3037 104.476 64.3037 112.076L70.4371 118.076L64.5704 123.41C61.2371 126.476 58.0371 128.876 57.2371 128.876C55.3704 128.876 34.5704 108.876 34.5704 107.01C34.5704 104.343 42.4371 88.8764 43.9037 88.8764C44.5704 88.8764 45.2371 89.2764 45.2371 89.8097C45.2371 91.8097 54.3037 101.543 55.2371 100.61C55.7704 100.21 53.6371 96.4764 50.5704 92.343L44.9704 85.0097L54.1704 71.6764C64.4371 56.6097 77.2371 41.0097 79.3704 41.0097C80.1704 40.8764 85.1037 44.6097 90.3037 49.143ZM132.037 58.4764C133.37 60.2097 134.437 62.0764 134.57 62.6097C134.57 64.2097 123.904 79.543 122.837 79.543C122.17 79.543 120.437 77.8097 118.837 75.6764L116.037 71.8097L122.17 63.6764C125.504 59.2764 128.437 55.543 128.837 55.543C129.237 55.543 130.57 56.8764 132.037 58.4764ZM153.904 80.2097C172.304 104.343 178.837 127.143 171.77 141.676C167.504 150.743 161.637 153.543 147.637 153.543C141.237 153.41 135.637 153.01 135.104 152.476C133.637 151.01 136.97 147.943 140.97 147.143C146.304 146.076 151.504 141.41 154.837 135.143C158.304 128.476 158.704 113.543 156.037 102.21C153.77 93.0097 146.57 75.6764 142.704 70.4764C141.237 68.2097 139.904 65.943 139.904 65.4097C139.904 63.543 146.704 70.743 153.904 80.2097ZM144.037 78.4764C150.837 91.943 154.57 105.276 154.837 116.61C154.837 122.343 154.437 128.476 153.904 130.343C152.304 135.276 148.037 140.743 143.904 142.876L140.17 144.743L140.837 133.543C141.504 123.943 141.104 120.743 138.17 111.276C136.17 105.143 132.57 96.743 129.904 92.4764C127.37 88.2097 125.237 84.2097 125.237 83.4097C125.237 82.743 127.77 78.4764 130.837 74.0764C137.37 65.0097 137.104 64.8764 144.037 78.4764ZM117.77 78.8764C118.97 80.6097 119.904 82.743 119.904 83.4097C119.904 86.4764 86.5704 125.01 84.0371 124.876C83.6371 124.743 81.5037 123.276 79.3704 121.543L75.3704 118.343L85.3704 107.943C90.8371 102.21 99.3704 92.6097 104.437 86.4764C109.37 80.4764 113.904 75.543 114.57 75.543C115.104 75.543 116.57 77.0097 117.77 78.8764ZM130.17 99.4097C133.237 105.543 136.437 113.41 137.104 117.143C138.97 125.81 138.97 137.276 136.97 141.543C135.77 144.343 134.57 144.876 129.77 144.876C121.504 144.876 108.57 140.476 96.8371 133.543L86.4371 127.41L96.1704 117.143C101.504 111.543 109.504 102.476 113.77 97.143C118.037 91.8097 122.304 87.6764 123.104 87.943C123.904 88.2097 127.104 93.4097 130.17 99.4097ZM24.8371 100.476C30.5704 107.81 30.5704 107.676 27.7704 117.543C25.1037 127.41 24.4371 140.21 26.5704 143.543C28.1704 146.076 25.9037 147.543 20.5704 147.543C10.4371 147.41 6.83708 137.676 11.3704 122.076C13.6371 114.21 20.8371 98.2097 22.1704 98.2097C22.5704 98.2097 23.7704 99.2764 24.8371 100.476ZM44.3037 121.676C56.0371 132.61 56.1704 131.81 40.7037 140.343C31.9037 145.143 31.5037 145.276 29.7704 142.876C28.7037 141.543 27.9037 137.41 27.9037 133.943C27.9037 127.01 31.7704 111.276 33.2371 111.81C33.7704 112.076 38.8371 116.476 44.3037 121.676ZM77.7704 124.076L81.7704 127.143L77.1037 131.276C70.8371 137.01 68.5704 137.543 63.7704 134.21C61.6371 132.61 59.9037 131.143 60.1704 130.876C63.7704 127.543 72.4371 120.876 72.9704 120.876C73.5037 120.876 75.6371 122.343 77.7704 124.076ZM112.837 146.743C118.037 149.41 123.104 151.543 123.904 151.543C124.704 151.543 125.104 152.076 124.704 152.743C123.237 155.01 114.437 155.676 106.17 154.076C98.1704 152.61 74.4371 142.476 72.8371 139.943C72.4371 139.276 74.8371 136.61 78.1704 133.943L84.1704 129.276L93.7704 135.676C98.9704 139.143 107.504 144.076 112.837 146.743ZM65.2371 139.676C65.2371 142.076 47.3704 149.41 41.5037 149.41C34.5704 149.543 32.8371 147.276 38.3037 145.01C40.3037 144.21 45.5037 141.143 49.7704 138.21L57.6371 133.143L61.3704 135.943C63.5037 137.41 65.2371 139.143 65.2371 139.676ZM131.904 148.876C131.904 150.61 127.904 150.61 125.237 148.876C123.77 147.943 124.304 147.543 127.637 147.543C129.904 147.543 131.904 148.076 131.904 148.876Z" fill="#FFFEFE"/>
</svg>
